<svg id="svg2" xmlns="http://www.w3.org/2000/svg" viewBox="0 0 400 400">
  <defs>
    <style>
      .cls-1 {
      fill: #CFCFCF;
      }

      .cls-2 {
      fill: #F0F0F0;
      }

      .cls-3 {
      fill: #e0e0e0;
      }

      .cls-4 {
      fill: #ea868f;
      }

      .cls-5 {
      fill: #f1aeb5;
      }

      .cls-6 {
      fill: #fff;
      }

      .cls-7 {
      fill: #6f42c1;
      }

      .cls-8 {
      fill: #ccc;
      }
    </style>
  </defs>
  <title>PIC_20160617_091404</title>
  <path class="cls-1" d="M165.47,397.03a198.412,198.412,0,0,1-49.5-15.49l-5.58-8.9,19.8-22.23L107.6,353.2V290.86l33.29-23.05,16.1,84.66Z"/>
  <path class="cls-1" d="M292.44,353.2l-22.34-2.54,19.42,22.04-5.36,8.78a198.451,198.451,0,0,1-49.69,15.56l8.55-44.84,16.08-84.39,33.35,23.16Z"/>
  <path class="cls-2" d="M110.39,372.64l5.58,8.9a200.715,200.715,0,0,1-68.25-51.87v-.01L53,311.92l54.6-21.06V353.2l22.59-2.79Z"/>
  <path class="cls-2" d="M352.54,329.35a200.488,200.488,0,0,1-68.38,52.13l5.36-8.78L270.1,350.66l22.34,2.54.01-62.23,55.05,21.31Z"/>
  <path class="cls-3" d="M186.4,351.49l-1.67,47.94q-9.765-.75-19.26-2.4l-8.48-44.56,15.8-14.75Z"/>
  <path class="cls-3" d="M243.02,352.2l-8.55,44.84q-9.45,1.65-19.2,2.39l-1.57-47.94,13.69-13.77Z"/>
  <path class="cls-4" d="M215.27,399.43q-7.56.57-15.27.57t-15.27-.57l1.67-47.94L200,365.26l13.7-13.77Z"/>
  <ellipse class="cls-5" cx="195.89" cy="225.79" rx="12.32" ry="12.31"/>
  <path class="cls-7" d="M200,0C89.54,0,0,89.54,0,200A199.185,199.185,0,0,0,47.72,329.66L53,311.92l54.6-21.06,33.29-23.05H259.1l33.35,23.16,55.05,21.31,5.04,17.07A199.135,199.135,0,0,0,400,200C400,89.54,310.46,0,200,0Zm-4.11,238.1a12.31,12.31,0,1,1,12.32-12.31A12.31,12.31,0,0,1,195.89,238.1Zm48.35-128.3a59.337,59.337,0,0,1-10.02,16.57c-5.6,6.51-10.39,9.09-20.18,19.92-4.02,4.45-4.98,5.97-5.65,7.19-4.19,7.63-4.12,16.08-4.05,19.27.14,6.96-.19,8.79-.19,12.72,0,3-3.36,5.53-7.33,5.53a7.362,7.362,0,0,1-7.45-7.45c-.06-1.69-.09-4.07,0-6.94.13-4.3.07-5.69.17-7.35.06-.87.2-2.36.52-4.65.77-5.38,1.23-8.66,2.62-12.77a39.526,39.526,0,0,1,5.34-10.79,45.071,45.071,0,0,1,3.33-4.04c1.33-1.44,2.3-2.31,3.82-3.7,0,0,8.04-7.25,11.4-10.94.68-.74,1.15-1.27,1.38-1.53.53-.58,1.04-1.19,1.62-1.92,3.05-3.82,5.44-6.87,7.45-11.43a40.8,40.8,0,0,0,3.34-18.24c0-13.35-7.53-23.6-19.26-27.53h-.01a52.9,52.9,0,0,0-13.59-1.8,37.96,37.96,0,0,0-14.65,2.31,19.929,19.929,0,0,0-6.83,3.85c-.6.56-2.29,2.2-4.16,4.34a13.247,13.247,0,0,1-2.99,2.9,9.341,9.341,0,0,1-3.79,1.28c-4.6,0-8.48-3.42-8.48-7.45,0-12.95,19.82-23.9,43.25-23.9,28.7,0,48.76,18.5,48.76,44.97A60.212,60.212,0,0,1,244.24,109.8Z"/>
  <polygon class="cls-6" points="259.1 267.81 243.02 352.2 227.39 337.72 200 312.34 216.42 299.96 259.1 267.81"/>
  <polygon class="cls-6" points="216.42 299.96 200 312.34 183.57 299.96 216.42 299.96"/>
  <polygon class="cls-6" points="200 312.34 172.79 337.72 156.99 352.47 140.89 267.81 183.57 299.96 200 312.34"/>
  <path class="cls-5" d="M248.61,88.22a60.212,60.212,0,0,1-4.37,21.58,59.337,59.337,0,0,1-10.02,16.57c-5.6,6.51-10.39,9.09-20.18,19.92-4.02,4.45-4.98,5.97-5.65,7.19-4.19,7.63-4.12,16.08-4.05,19.27.14,6.96-.19,8.79-.19,12.72,0,3-3.36,5.53-7.33,5.53a7.362,7.362,0,0,1-7.45-7.45c-.06-1.69-.09-4.07,0-6.94.13-4.3.07-5.69.17-7.35.06-.87.2-2.36.52-4.65.77-5.38,1.23-8.66,2.62-12.77a39.526,39.526,0,0,1,5.34-10.79,45.071,45.071,0,0,1,3.33-4.04c1.33-1.44,2.3-2.31,3.82-3.7,0,0,8.04-7.25,11.4-10.94.68-.74,1.15-1.27,1.38-1.53.53-.58,1.04-1.19,1.62-1.92,3.05-3.82,5.44-6.87,7.45-11.43a40.8,40.8,0,0,0,3.34-18.24c0-13.35-7.53-23.6-19.26-27.53h-.01a52.9,52.9,0,0,0-13.59-1.8,37.96,37.96,0,0,0-14.65,2.31,19.929,19.929,0,0,0-6.83,3.85c-.6.56-2.29,2.2-4.16,4.34a13.247,13.247,0,0,1-2.99,2.9,9.341,9.341,0,0,1-3.79,1.28c-4.6,0-8.48-3.42-8.48-7.45,0-12.95,19.82-23.9,43.25-23.9C228.55,43.25,248.61,61.75,248.61,88.22Z"/>
  <polygon class="cls-5" points="227.39 337.72 213.7 351.49 200 365.26 186.4 351.49 172.79 337.72 200 312.34 227.39 337.72"/>
  <polygon class="cls-8" points="259.1 267.81 216.42 299.96 183.57 299.96 140.89 267.81 259.1 267.81"/>
</svg>
