<svg width="800" height="166pt" viewBox="0 0 600 166" xmlns="http://www.w3.org/2000/svg"><g fill="#0379D6"><path d="M.4 86.1c.9 0 1.8.1 2.7.1H67.5v65.1c-7.7-1.1-15.3-2.1-23-3.2-14.2-2-28.5-4-42.7-6-.4-.1-.9 0-1.3 0-.1-18.7-.1-37.4-.1-56zM.4 23.4c5.5-.7 10.9-1.3 16.4-2 15.7-2.1 31.4-4.3 47.2-6.5 1.1-.2 2.2-.3 3.5-.5v64.9H.5C.4 60.7.4 42.1.4 23.4zM164.5 78.7H75.8V13.1c29.5-4.3 59-8.6 88.7-13v78.6zM75.7 152.4V87.2h88.8V165c-29.6-4.2-59.1-8.4-88.8-12.6zM302.4 32.8v100.6h-11.3V49.2c-2.1 4.9-4.6 11.2-7.3 17.3-9.6 21.7-19.3 43.4-28.9 65.2-1 2.3-2.5 1.8-4.1 1.9-1.5.1-2.6 0-3.4-1.8-11-24.8-22.1-49.5-33.1-74.3-1.4-3.2-2.3-6.6-3.3-9.6v85.5h-11.1V32.8c4.9 0 9.8-.1 14.6.1.6 0 1.3 1 1.6 1.7 6.6 14.9 13.2 29.8 19.7 44.8 5.2 11.8 10.3 23.6 15.5 35.7 0-.1.1-.4.1-.6 8.9-20.2 17.7-40.3 26.6-60.5 2.9-6.5 5.9-13 8.8-19.6.5-1.2 1.2-1.6 2.5-1.6 4.3.1 8.6 0 13.1 0zM413.2 133.4h-11.6V27H413v47.1c.7-1 .9-1.3 1.2-1.7 6.5-9.8 15.8-13.7 27.3-12.7 11.8 1.1 19.6 7.8 23.3 18.7 4.6 13.4 4.1 26.9-2.1 39.8-7.6 15.7-22.8 19-35 16.1-5.8-1.4-9.8-4.5-14.5-11.2v10.3zm42.7-37.7c-.2-2.7-.4-5.4-.8-8-1.4-9.2-7.1-16-14.8-17.7-12.8-2.9-24.7 4.8-26.6 18-.9 6.4-.9 13-.4 19.4.7 9.1 7.7 16.5 16.4 18 9.3 1.7 17.6-2.4 22-10.8 3.2-6 4-12.3 4.2-18.9zM599.5 100.3h-50.9c-.9 10.8 5.2 24 20.1 25.1 8.6.7 16.4-1.6 23.3-6.6.5-.4 1.1-.7 1.9-1.3 0 3.6.1 6.8-.1 10.1 0 .5-.8 1.2-1.3 1.6-4.5 3-9.5 4.6-14.8 5.4-6.1.9-12.2 1.1-18.2-.4-9.4-2.4-16.1-8.1-19.7-17-4.9-12.1-5.2-24.5-.5-36.7 6.2-15.8 21.4-23.8 37.9-20.1 11.3 2.6 17.6 10.3 20.1 21.1 1.5 6.1 1.5 12.4 2.2 18.8zm-51.1-9.9h38.8c-.1-1.6-.1-3.1-.4-4.5-1.1-7.4-4.2-13.5-11.9-15.7-7.3-2.1-14-.6-19.5 5-4.1 4.2-6.1 9.4-7 15.2zM388.3 97c-.2 5.4-.9 10.7-2.7 15.8-4.7 13.4-16.2 21.8-30.6 22.5-5.6.3-11.2-.2-16.5-2.3-9.3-3.6-15.6-10.3-18.8-19.7-3.7-11-3.5-22.1.8-32.8 4.7-11.9 14-18.4 26.5-20.3 6.2-.9 12.4-.8 18.4 1 12.6 3.8 19.2 12.9 21.7 25.4.7 3.4.8 6.9 1.2 10.4zm-11.9-.9c-.3-2.1-.6-5.8-1.4-9.5-2.2-9.9-9.3-16.3-18.5-17.1-11.7-1.1-20.2 3.4-24.4 13.2-4 9.3-4.2 19-.6 28.5 5 13.3 21.6 18.8 33.7 11.4 2.1-1.2 3.9-3 5.4-4.9 4.7-5.8 5.5-12.8 5.8-21.6zM511.3 27.1h11.3v106.3h-11.3V27.1zM481.3 61.6h11.3v71.9h-11.3V61.6zM494.6 35.5c0 4.3-3.4 7.6-7.6 7.6-4.2 0-7.3-3.3-7.3-7.6s3.2-7.6 7.4-7.6 7.6 3.3 7.5 7.6z"/></g></svg>